<svg xmlns="http://www.w3.org/2000/svg" xmlns:xlink="http://www.w3.org/1999/xlink" viewBox="0 0 89.17 71.67"><defs><style>.cls-1{fill:none;}.cls-2{clip-path:url(#clip-path);}.cls-3{fill:#fff;}</style><clipPath id="clip-path"><rect class="cls-1" width="89.17" height="71.67"/></clipPath></defs><title>Element 23</title><g id="Ebene_2" data-name="Ebene 2"><g id="Ebene_1-2" data-name="Ebene 1"><g class="cls-2"><path class="cls-3" d="M59.55,31.66,87.72,65.44a12.14,12.14,0,0,0,1.44-5.55q0-11.41,0-22.82,0-12.7,0-25.38a11.7,11.7,0,0,0-1.74-6.12L59.55,31.66m-15,6.18L83.31,1.54a10.9,10.9,0,0,0-6-1.54H11.94a16.89,16.89,0,0,0-2,.08A9.86,9.86,0,0,0,5.84,1.53L44.58,37.84M83.91,69.73,55.41,35.6c-.25.22-.45.37-.62.54l-8.24,7.71a2.63,2.63,0,0,1-4,0l-4.42-4.15-4.4-4.1L5.25,69.74a10.57,10.57,0,0,0,6.21,1.92q33.13,0,66.27,0a10.47,10.47,0,0,0,6.18-1.93"/><path class="cls-3" d="M0,10.11C.4,8.92.78,7.73,1.2,6.55a9,9,0,0,1,.53-1L29.61,31.66,1.32,65.58,0,61.28Z"/><path class="cls-3" d="M83.91,69.73a10.47,10.47,0,0,1-6.18,1.93q-33.14,0-66.27,0a10.57,10.57,0,0,1-6.21-1.92L33.77,35.58l4.4,4.1,4.42,4.15a2.63,2.63,0,0,0,4,0l8.24-7.71c.17-.17.37-.32.62-.54l28.5,34.13"/><path class="cls-3" d="M44.58,37.84,5.84,1.53A9.87,9.87,0,0,1,9.91.09a17.14,17.14,0,0,1,2-.08H77.28a10.93,10.93,0,0,1,6,1.54L44.58,37.84"/><path class="cls-3" d="M59.55,31.66,87.42,5.56a11.91,11.91,0,0,1,1.74,6.12q0,12.7,0,25.38V59.89a12,12,0,0,1-1.45,5.54L59.55,31.66"/></g></g></g></svg>