<svg xmlns="http://www.w3.org/2000/svg" xmlns:xlink="http://www.w3.org/1999/xlink" viewBox="0 0 154.16 154.16"><defs><style>.cls-1{fill:none;}.cls-2{clip-path:url(#clip-path);}.cls-3{fill:#00586f;}.cls-4{fill:#fff;}</style><clipPath id="clip-path"><rect class="cls-1" width="154.16" height="154.16"/></clipPath></defs><title>Element 19</title><g id="Ebene_2" data-name="Ebene 2"><g id="Ebene_1-2" data-name="Ebene 1"><g class="cls-2"><path class="cls-3" d="M77.08,154.16A77.08,77.08,0,1,0,0,77.08a77.08,77.08,0,0,0,77.08,77.08"/></g><path class="cls-4" d="M34.68,112.38l.51-3.48c1.7-3,3.34-6,5.14-8.88Q60.6,67.3,80.9,34.62a9.75,9.75,0,0,1,6.63-4.39c.23-.06.44-.15.67-.23h4.64c.08.06.16.15.26.16a19.79,19.79,0,0,1,6.8,2.61c3.6,2,7.27,3.89,10.94,5.75a8.63,8.63,0,0,0,8,.22l.23.25q-3.63,5.79-7.26,11.59Q103.36,64.13,95,77.69c-.11.18-.23.35-.4.59l-2-1.1L114.44,42c-6-1.32-11.09-4.38-16.14-7.47a14.1,14.1,0,0,0-10.58-2,2.84,2.84,0,0,0-.31.06c-4.49,1.14-6,4.3-4,8.47A14.7,14.7,0,0,0,88,46.34c.82-1.34,1.75-2.62,2.43-4,1.15-2.38,3.12-3.08,5.53-3a12.35,12.35,0,0,1,7.6,2.78A5.34,5.34,0,0,1,104.75,49c-2.91,4.74-5.86,9.46-8.79,14.19L87.35,77.07c7.88,3.55,14.46,8.39,17.64,17-1.88,0-3.59.09-5.28,0C97,93.86,97,93.8,96.39,96.45c-.78,3.31-1.56,6.61-2.42,10-1.32-8.73-6.28-14-15-15.89q-7.17,11.56-14.37,23.15l.19.24c1.89-.5,3.79-1,5.66-1.53.31-.1.56-.51.76-.82q5.13-8.23,10.23-16.47c.83-1.33.83-1.33,2.2-.62l.63.37L81,100.15c-2.75,4.43-5.48,8.87-8.27,13.27a2.77,2.77,0,0,1-1.19,1,22.87,22.87,0,0,1-7.79,1.66,1.45,1.45,0,0,0-1,.6c-1,1.59-2,3.19-3,4.83a9,9,0,0,1-5.73,4.3,2.72,2.72,0,0,0-.46.21H48.32a2.49,2.49,0,0,0-.43-.22,18.61,18.61,0,0,1-9.14-5.54A17.51,17.51,0,0,1,34.68,112.38ZM53.52,82c-.21.29-.3.4-.37.52-5.3,8.53-10.58,17.07-15.91,25.59a6.1,6.1,0,0,0-.73,4.86c1.41,5.94,8,11.07,14.11,11a7.38,7.38,0,0,0,6.67-3.73c3.89-6.42,7.89-12.77,11.85-19.14,1.3-2.09,2.58-4.18,4-6.45a15.23,15.23,0,0,1-12.25-2.5A17,17,0,0,1,53.52,82ZM79.92,39.5l-.71,1.06C74.61,48,70,55.44,65.37,62.83a6.34,6.34,0,0,0-.65,6,15,15,0,0,0,12.55,10,7.58,7.58,0,0,0,8.19-3.93c4.28-7.17,8.77-14.22,13.17-21.32.17-.28.33-.57.53-.92C89.62,52.08,82.54,47.24,79.92,39.5Zm9.41,8a16.7,16.7,0,0,0,6.48,2.73,7,7,0,0,0,4.53-.55c3-1.65,3.18-4.91.31-6.74a9.53,9.53,0,0,0-6.35-1.52,2.89,2.89,0,0,0-1.82,1C91.34,44.07,90.39,45.8,89.33,47.53Z"/></g></g></svg>