<svg xmlns="http://www.w3.org/2000/svg" xmlns:xlink="http://www.w3.org/1999/xlink" viewBox="0 0 138.9 139.54"><defs><style>.cls-1{fill:none;}.cls-2{clip-path:url(#clip-path);}.cls-3{fill:#fff;}.cls-4{fill:#00586f;}</style><clipPath id="clip-path"><rect class="cls-1" width="138.91" height="139.54"/></clipPath></defs><title>Element 2</title><g id="Ebene_2" data-name="Ebene 2"><g id="Ebene_1-2" data-name="Ebene 1"><g class="cls-2"><path class="cls-3" d="M69.66,138.49A69.25,69.25,0,1,0,.41,69.25a69.24,69.24,0,0,0,69.25,69.24"/><path class="cls-4" d="M97.85,41.47H40.51c-.48,0-.61.14-.61.62q0,17.1,0,34.2c0,.19,0,.39,0,.58H98.48v-.61q0-17.07,0-34.15c0-.5-.15-.64-.65-.64"/><path class="cls-4" d="M103.35,83.88a3.59,3.59,0,0,0-.12.35,4.64,4.64,0,0,1-4.84,3.57H76.74c-.71,0-.77,0-.72.72a20.54,20.54,0,0,0,.43,3.77,5.51,5.51,0,0,0,3.3,4,12.09,12.09,0,0,0,2.46.59c.73.12.74.07.74.79,0,1.29,0,2.58,0,3.87H55.44V98c0-1.06,0-1,1.05-1.14a5.7,5.7,0,0,0,4.31-2.44,9.68,9.68,0,0,0,1.54-5.63c0-1.22,0-1-1-1H39.94a4.48,4.48,0,0,1-4-1.91A12.54,12.54,0,0,1,35,83.77V40.55a1,1,0,0,0,.09-.24,4.21,4.21,0,0,1,1.66-2.65,18.18,18.18,0,0,1,2.18-1H99.42a1.09,1.09,0,0,0,.25.1,4.05,4.05,0,0,1,2.61,1.62,18.78,18.78,0,0,1,1.07,2.21ZM69,1.46a69,69,0,1,0,69,69,69,69,0,0,0-69-69"/></g></g></g></svg>