<svg xmlns="http://www.w3.org/2000/svg" xmlns:xlink="http://www.w3.org/1999/xlink" viewBox="0 0 74.08 74.03"><defs><style>.cls-1{fill:none;}.cls-2{clip-path:url(#clip-path);}.cls-3{fill:#fff;}</style><clipPath id="clip-path"><rect class="cls-1" width="74.08" height="74.03"/></clipPath></defs><title>Element 26</title><g id="Ebene_2" data-name="Ebene 2"><g id="Ebene_1-2" data-name="Ebene 1"><g class="cls-2"><path class="cls-3" d="M0,60a35.31,35.31,0,0,1,4.51-6.94,22.34,22.34,0,0,1,8.69-6.51,4,4,0,0,1,1.33-.27c1.72-.06,3.45,0,5.17-.14a8.77,8.77,0,0,0,6.5-4.06l.17-.24.13-.08c3,2.65,6.35,4.49,10.47,4.5s7.53-1.8,10.51-4.47c.72.77,1.36,1.57,2.12,2.26a8.68,8.68,0,0,0,5.92,2.22,29.5,29.5,0,0,0,3.12,0,6.6,6.6,0,0,1,3.76,1A27.14,27.14,0,0,1,72.8,57.8a8.06,8.06,0,0,1,1.27,4.73c-.14,2.26,0,4.53,0,6.79A4.55,4.55,0,0,1,69.33,74H4.79A4.48,4.48,0,0,1,.15,70.62,1.65,1.65,0,0,0,0,70.37Z"/><path class="cls-3" d="M39.23,0c1.05.18,2.1.32,3.14.57A12.56,12.56,0,0,1,52.17,10c2.29,8.19.88,15.87-3.46,23.09a22.13,22.13,0,0,1-5.21,6.11c-4.23,3.33-8.75,3.34-13,0a25.64,25.64,0,0,1-7.46-10.51A26.39,26.39,0,0,1,20.8,17.78,27.24,27.24,0,0,1,22.16,9C24,4,27.63,1.24,32.79.32c.66-.12,1.34-.21,2-.32Z"/></g></g></g></svg>