<svg xmlns="http://www.w3.org/2000/svg" xmlns:xlink="http://www.w3.org/1999/xlink" viewBox="0 0 66.11 84.02"><defs><style>.cls-1{fill:none;}.cls-2{clip-path:url(#clip-path);}.cls-3{fill:#fff;}</style><clipPath id="clip-path"><rect class="cls-1" width="66.11" height="84.02"/></clipPath></defs><title>Element 22</title><g id="Ebene_2" data-name="Ebene 2"><g id="Ebene_1-2" data-name="Ebene 1"><g class="cls-2"><path class="cls-3" d="M33.26,0,33,0a36.53,36.53,0,0,0-3.28,9.3,7.19,7.19,0,0,0,.18,3.9,2.05,2.05,0,0,0,2.27,1.55A10.69,10.69,0,0,0,35,13.63c1.54-1,1.67-2.58,1.55-4.15a23.92,23.92,0,0,0-2.19-7.39C34,1.38,33.62.7,33.26,0M25,27.8V39.14c0,1.39.28,1.82,1.65,2.33a19.84,19.84,0,0,0,9.88.75,19.54,19.54,0,0,0,3.2-.83,2,2,0,0,0,1.5-2.1c0-7.68,0-15.35,0-23a1.69,1.69,0,0,0-1.06-1.73,17.84,17.84,0,0,0-2-.74.8.8,0,0,0-.65.18,8.46,8.46,0,0,1-4,2.49,3.92,3.92,0,0,1-4.94-1.93c-.34-.75-.72-.75-1.33-.49-.26.1-.51.24-.77.34a2,2,0,0,0-1.41,2.07C25,20.23,25,24,25,27.8m-3.57,5.59c-2.8.51-5.47.91-8.1,1.51-3.71.86-7.37,1.92-10.5,4.12-1.35.95-2.61,2-2.71,3.76C0,45,0,47.12,0,49.29a1,1,0,0,0,.41.58,8.38,8.38,0,0,0,4,1.51,6.69,6.69,0,0,0,4-.85c.34,2.84,2.15,4.51,4.76,5.38s5.15.69,7.29-1.3c1,2.65,3.13,3.88,5.87,4.2A6.7,6.7,0,0,0,33,56c3,4.53,11,3.35,12.64-1.38,2.12,2,4.66,2.13,7.27,1.27s4.41-2.56,4.74-5.29c.12,0,.17,0,.21,0,2.79,1.46,5.35.83,7.79-.77a1.08,1.08,0,0,0,.4-.77c0-1.93,0-3.85,0-5.78a4.29,4.29,0,0,0-1.28-3,15.1,15.1,0,0,0-5.6-3.47,48.86,48.86,0,0,0-9.89-2.68c-1.51-.28-3-.47-4.61-.7v6.41A4.2,4.2,0,0,1,43.41,43a9.13,9.13,0,0,1-4.47,2.21,26.11,26.11,0,0,1-8.41.53,16,16,0,0,1-6.21-1.58,4.72,4.72,0,0,1-2.95-4.53c0-.76,0-1.52,0-2.28V33.39"/><path class="cls-3" d="M29.35,84c-.75-.07-1.5-.16-2.26-.2a76,76,0,0,1-13.69-2,30.86,30.86,0,0,1-7.9-3,7.59,7.59,0,0,1-3.31-3,4.06,4.06,0,0,1-.47-1.72c0-7.12,0-14.24,0-21.36,0-.11,0-.22,0-.2l3.8.45a.85.85,0,0,0,.42,0c1-.41,1.44.11,2,.87a9.55,9.55,0,0,0,11.39,3.45.77.77,0,0,1,1.05.26,9.65,9.65,0,0,0,12,1.44,1,1,0,0,1,1.4-.08,9.29,9.29,0,0,0,8.4,1,7.86,7.86,0,0,0,3.79-2.5.58.58,0,0,1,.78-.16,9.63,9.63,0,0,0,12-4.07c.08-.15.31-.36.43-.34a9.57,9.57,0,0,0,5.3-.5v.83c0,6.78,0,13.57,0,20.35a5.33,5.33,0,0,1-2.67,4.61,28.31,28.31,0,0,1-9.42,3.79,78.67,78.67,0,0,1-15,2,4.48,4.48,0,0,0-.62.11Z"/><path class="cls-3" d="M21.38,33.39v3.94c0,.76,0,1.52,0,2.28a4.72,4.72,0,0,0,2.95,4.53,16,16,0,0,0,6.21,1.58,26.11,26.11,0,0,0,8.41-.53A9.13,9.13,0,0,0,43.41,43a4.2,4.2,0,0,0,1.32-3.09V33.48c1.59.23,3.1.42,4.61.7a48.86,48.86,0,0,1,9.89,2.68,15.1,15.1,0,0,1,5.6,3.47,4.29,4.29,0,0,1,1.28,3c0,1.93,0,3.85,0,5.78a1.08,1.08,0,0,1-.4.77c-2.44,1.6-5,2.23-7.79.77,0,0-.09,0-.21,0C57.36,53.35,55.56,55,53,55.91s-5.15.7-7.27-1.27C44.07,59.37,36.06,60.55,33,56a6.7,6.7,0,0,1-6.7,2.79c-2.74-.32-4.88-1.55-5.87-4.2-2.14,2-4.68,2.17-7.29,1.3s-4.42-2.54-4.76-5.38a6.69,6.69,0,0,1-4,.85,8.38,8.38,0,0,1-4-1.51A1,1,0,0,1,0,49.29C0,47.12,0,45,.07,42.78.17,41.07,1.43,40,2.78,39c3.13-2.2,6.79-3.26,10.5-4.12,2.63-.6,5.3-1,8.1-1.51"/><path class="cls-3" d="M25,27.8c0-3.78,0-7.56,0-11.34a1.94,1.94,0,0,1,1.4-2.08c.26-.1.51-.24.77-.34.61-.26,1-.26,1.33.49a3.92,3.92,0,0,0,4.93,1.93A8.52,8.52,0,0,0,37.42,14a.77.77,0,0,1,.64-.18,17.84,17.84,0,0,1,2,.74,1.69,1.69,0,0,1,1.06,1.74c0,7.67,0,15.35,0,23a2,2,0,0,1-1.49,2.1,20.27,20.27,0,0,1-13.09.08C25.23,41,25,40.53,25,39.14V27.8"/><path class="cls-3" d="M33.26,0c.36.7.76,1.38,1.07,2.09a24.17,24.17,0,0,1,2.18,7.39c.12,1.57,0,3.16-1.55,4.15a10.55,10.55,0,0,1-2.76,1.16,2,2,0,0,1-2.26-1.55,7,7,0,0,1-.18-3.9A36.13,36.13,0,0,1,33,0l.23,0"/></g></g></g></svg>