<svg xmlns="http://www.w3.org/2000/svg" xmlns:xlink="http://www.w3.org/1999/xlink" viewBox="0 0 133.2 132.84"><defs><style>.cls-1{fill:none;}.cls-2{clip-path:url(#clip-path);}.cls-3{fill:#00586f;}</style><clipPath id="clip-path" transform="translate(-31.82 -24.75)"><rect class="cls-1" width="196.84" height="161.12"/></clipPath></defs><title>Element 13</title><g id="Ebene_2" data-name="Ebene 2"><g id="Ebene_1-2" data-name="Ebene 1"><g class="cls-2"><path class="cls-3" d="M137,91.49a23,23,0,0,1-.47,4,27.37,27.37,0,0,1-1.59,5.32,29.81,29.81,0,0,1-2.43,4.65,31.61,31.61,0,0,1-5.08,6,33.8,33.8,0,0,1-6.36,4.67,37,37,0,0,1-8.8,3.63,37.45,37.45,0,0,1-4.82,1,48.8,48.8,0,0,1-6.12.4c-.88-.06-2.3-.12-3.71-.24-1-.1-2-.29-2.94-.42a.94.94,0,0,0-.49.1c-2.11,1-4.25,2-6.46,2.82-1.87.69-3.77,1.34-5.67,1.94a36.88,36.88,0,0,1-5.68,1.33,24.42,24.42,0,0,1-4.9.32,12.2,12.2,0,0,1-3.87-.75.29.29,0,0,1-.22-.33,1.27,1.27,0,0,1,.34-.84c.48-.52,1-1,1.5-1.52,1.24-1.12,2.54-2.17,3.74-3.33a15.85,15.85,0,0,0,3.53-4.89,11.92,11.92,0,0,0,.91-2.9.29.29,0,0,0-.11-.22c-.76-.74-1.56-1.44-2.29-2.2a29.5,29.5,0,0,1-4.22-5.54A27.93,27.93,0,0,1,67.43,96a27.59,27.59,0,0,1-.6-4.71A27.12,27.12,0,0,1,67,87.06a27.51,27.51,0,0,1,2.47-8.64,30,30,0,0,1,4.45-6.84,33.65,33.65,0,0,1,6.75-6,37.7,37.7,0,0,1,14.81-5.78,30,30,0,0,1,4.12-.44c1.4,0,2.8-.08,4.2,0,1.11,0,2.21.16,3.32.3A37.23,37.23,0,0,1,125,66.91a33.36,33.36,0,0,1,4.53,4.2,30,30,0,0,1,4.88,7.35,26.35,26.35,0,0,1,2.09,6.34c.22,1.2.37,2.42.47,3.63a28.37,28.37,0,0,1,0,3.06M98.42,24.75A66.42,66.42,0,1,0,165,91.17a66.51,66.51,0,0,0-66.6-66.42" transform="translate(-31.82 -24.75)"/></g></g></g></svg>