<svg xmlns="http://www.w3.org/2000/svg" xmlns:xlink="http://www.w3.org/1999/xlink" viewBox="0 0 145.89 146.26"><defs><style>.cls-1{fill:none;}.cls-2{clip-path:url(#clip-path);}.cls-3{fill:#fff;}.cls-4{fill:#00586f;}</style><clipPath id="clip-path"><rect class="cls-1" width="145.89" height="146.26"/></clipPath></defs><title>Element 6</title><g id="Ebene_2" data-name="Ebene 2"><g id="Ebene_1-2" data-name="Ebene 1"><g class="cls-2"><path class="cls-3" d="M73,145.89A72.95,72.95,0,1,0,0,73a72.94,72.94,0,0,0,73,72.94"/><path class="cls-4" d="M68.64,51.07a32.14,32.14,0,0,1,3.54,0c1.38,0,2.77-.07,4.14,0,1.56.1,1.43-.92,1.43-1.93s.09-2-1.45-1.93c-2.56.08-5.12.1-7.67,0-1.47-.06-1.76.57-1.73,1.85s0,2.22,1.74,2"/><path class="cls-4" d="M75.09,68.33c.11,2-.63,2.86-2.59,2.37-1.76.39-2.55-.3-2.4-2,0-.13,0-.26,0-.39-.38-4.86-1.11-4,4-4.13,1.1,0,1.37.49,1.26,1.45a15.87,15.87,0,0,0-.25,2.74M37.9,60.38A9.38,9.38,0,0,1,47.4,51c4.87,0,9.75-.05,14.62,0,1.5,0,2.1-.35,2.06-2-.15-5.67-.21-5.22,5.25-5.22,3.09,0,6.19,0,9.28,0,1.78,0,2.44.74,2.46,2.49.05,4.69.1,4.69,4.79,4.69,4,0,7.91,0,11.85,0a9.4,9.4,0,0,1,9.53,9.53c.08,5.23.08,5.23-5,5.23H92.13c-4.41,0-8.83-.05-13.24,0-1.35,0-2-.3-1.65-1.75.44-1.75-.38-2.15-2-2.07a52,52,0,0,1-5.72,0c-1.39-.06-2,.42-1.67,1.82.38,1.61-.29,2-1.85,2q-13.12-.1-26.26,0c-1.47,0-2-.39-1.9-1.89.11-1.17,0-2.37,0-3.55m0,11.95c0-1.65.31-2.3,2.15-2.28,8.82.1,17.64.06,26.46,0,1.17,0,2.13.07,2.09,1.59,0,1,.5,1.22,1.37,1.2,1.45,0,2.9-.06,4.35,0s2.49,0,2.42-1.86c0-.9.75-.92,1.44-.92,9.22,0,18.43,0,27.65,0,1.15,0,1.46.49,1.46,1.54,0,8.57.09,17.14-.06,25.7-.1,5.18-4.38,8.94-9.89,9-8.29,0-16.58,0-24.88,0q-12,0-24.09,0c-6.58,0-10.43-3.86-10.43-10.44,0-7.84,0-15.68,0-23.52M72.73.66a72.8,72.8,0,1,0,72.73,72.8A72.77,72.77,0,0,0,72.73.66"/></g></g></g></svg>