<svg xmlns="http://www.w3.org/2000/svg" xmlns:xlink="http://www.w3.org/1999/xlink" viewBox="0 0 58.14 78.21"><defs><style>.cls-1{fill:none;}.cls-2{clip-path:url(#clip-path);}.cls-3{fill:#fff;}</style><clipPath id="clip-path" transform="translate(0)"><rect class="cls-1" width="58.14" height="78.21"/></clipPath></defs><title>Element 25</title><g id="Ebene_2" data-name="Ebene 2"><g id="Ebene_1-2" data-name="Ebene 1"><g class="cls-2"><path class="cls-3" d="M29.05,41.64A15.47,15.47,0,1,0,13.61,26,15.41,15.41,0,0,0,29.05,41.64m-.39,36.57c-3.05-3.22-6.14-6.32-9-9.59A98.17,98.17,0,0,1,5.86,49.27,50.84,50.84,0,0,1,.47,34.33,29.08,29.08,0,0,1,56.74,20.16c2.07,6.4,1.69,12.79-.15,19.15-2.18,7.54-6.07,14.21-10.69,20.47a112.56,112.56,0,0,1-16.59,17.9c-.13.12-.28.23-.65.53" transform="translate(0)"/></g></g></g></svg>