<svg xmlns="http://www.w3.org/2000/svg" xmlns:xlink="http://www.w3.org/1999/xlink" viewBox="0 0 148.03 148.7"><defs><style>.cls-1{fill:none;}.cls-2{clip-path:url(#clip-path);}.cls-3{fill:#fff;}.cls-4{fill:#00586f;}</style><clipPath id="clip-path" transform="translate(0)"><rect class="cls-1" width="148.03" height="148.7"/></clipPath></defs><title>Element 12</title><g id="Ebene_2" data-name="Ebene 2"><g id="Ebene_1-2" data-name="Ebene 1"><g class="cls-2"><path class="cls-3" d="M73.5,147A73.51,73.51,0,1,0,0,73.51,73.51,73.51,0,0,0,73.5,147" transform="translate(0)"/><path class="cls-4" d="M87.34,56.33a5.9,5.9,0,0,1,5.89-5.71A6,6,0,0,1,99,56.48a5.83,5.83,0,1,1-11.66-.15m23,5q-7.31,7.09-14.65,14.14a3.92,3.92,0,0,1-.52.35l-3.45-3.68a8.35,8.35,0,0,0,1.37-.87q5-4.8,10-9.64c1.68-1.62,1.72-2.93.12-4.6q-4.71-4.92-9.46-9.81c-1.61-1.65-3-1.67-4.62-.09-2.81,2.69-5.6,5.4-8.53,8.22l4.64,4.83c1,1,2,2,3,3.07a1.86,1.86,0,0,1,0,2.8c-1,.8-1.79.54-2.61-.34-3.35-3.6-6.73-7.15-10.1-10.72a4.54,4.54,0,0,1-.39-.53c1.66-1.78,3.2-3.55,4.85-5.19,3.13-3.1,6.32-6.13,9.5-9.18,1.51-1.44,2.71-1.44,4.15.05q8.37,8.65,16.72,17.34a2.43,2.43,0,0,1,0,3.85m-2.66,48.28c-.94.89-2,.67-3.07.25-5.25-2-10.52-4-15.78-6-.38-.14-.74-.33-1.35-.61l15-14.15a12.84,12.84,0,0,1,.58,1.39c1.7,5.36,3.37,10.74,5.07,16.1.36,1.11.49,2.17-.45,3M52.46,66,67.54,51.8l33.34,35.38L85.79,101.39,52.46,66m15.83,35.87C65.22,105,62,108,58.88,111c-1.55,1.48-2.77,1.47-4.25-.07q-8.28-8.57-16.53-17.16c-1.33-1.38-1.39-2.76-.13-4q8.12-7.85,16.28-15.66a2.91,2.91,0,0,1,.46-.26c1.21,1.27,2.41,2.52,3.6,3.78,1.42,1.5,2.85,3,4.24,4.52.47.52,1.41,1,.5,1.9a1.72,1.72,0,0,1-2.58.09c-.76-.65-1.4-1.45-2.12-2.15s-1.76-1.61-2.71-2.48l-.91.83c1.57,1.64,3.07,3.18,4.53,4.76a1.71,1.71,0,0,1,0,2.58,1.81,1.81,0,0,1-2.68-.11c-.31-.28-.58-.6-.88-.88-1.24-1.15-2.5-2.29-3.85-3.53L51,83.9c1.53,1.59,3,3.08,4.44,4.62A1.84,1.84,0,1,1,52.82,91c-1.49-1.43-3-2.82-4.64-4.34-.12.1-.44.38-.87.73,1.46,1.53,2.86,3,4.23,4.44,1.13,1.19,1.21,2.14.33,3s-1.85.61-3-.47C47.45,93,46,91.74,44.52,90.44a2.15,2.15,0,0,0,.15,3.13Q49.83,99,55.11,104.36c1.2,1.21,2.6,1,4-.31l11.4-11,1.24-1.15L74.64,95c-2.19,2.4-4.18,4.74-6.35,6.92M40.52,47.23c2.95-2.89,5.95-5.73,9-8.48a4.19,4.19,0,0,1,5.77.16c1.92,1.84,3.68,3.84,5.65,5.9L45.86,59c-2-2.16-4-4.16-5.78-6.36a4.17,4.17,0,0,1,.44-5.45m25.69,3.16L51,64.7c-.43-.54-.72-1-1.06-1.32-.89-1-1.81-1.94-2.86-3.05L62.18,46.11l4,4.28m8-49.34A74.09,74.09,0,0,0,.35,74.78c-.07,40.62,33.18,74.08,73.8,73.92C114.7,148.91,148,115.57,148,75a74.1,74.1,0,0,0-73.8-74" transform="translate(0)"/></g></g></g></svg>