<svg xmlns="http://www.w3.org/2000/svg" xmlns:xlink="http://www.w3.org/1999/xlink" viewBox="0 0 90.03 82.86"><defs><style>.cls-1{fill:none;}.cls-2{clip-path:url(#clip-path);}.cls-3{fill:#fff;}</style><clipPath id="clip-path" transform="translate(0 0)"><rect class="cls-1" width="90.03" height="82.86"/></clipPath></defs><title>Element 20</title><g id="Ebene_2" data-name="Ebene 2"><g id="Ebene_1-2" data-name="Ebene 1"><g class="cls-2"><path class="cls-3" d="M45,10.53C44.33,9.68,43.67,8.82,43,8A24.65,24.65,0,0,0,35.32,2.3,23.13,23.13,0,0,0,26.72.05a24.82,24.82,0,0,0-12.1,2.32,25.3,25.3,0,0,0-9.56,7.9A25.69,25.69,0,0,0,1,18.61a27.52,27.52,0,0,0-.88,4.86,19.62,19.62,0,0,0,0,4.4,23.69,23.69,0,0,0,1.3,5,49.73,49.73,0,0,0,4.87,9.35,105.11,105.11,0,0,0,9.2,12.08Q19,58.21,22.57,62c2.24,2.36,4.56,4.65,6.9,6.91q3.73,3.6,7.6,7.08c2.54,2.29,5.15,4.51,7.74,6.76.14.13.24.15.39,0,1-.9,2.11-1.76,3.14-2.68,2.71-2.41,5.45-4.79,8.1-7.27q4.25-4,8.35-8.09,3.57-3.59,6.94-7.34c2.33-2.61,4.58-5.28,6.78-8a77.08,77.08,0,0,0,7-10.17,40.13,40.13,0,0,0,3.41-7.38,20.55,20.55,0,0,0,1-4.77,22.48,22.48,0,0,0-.13-4.34,24.64,24.64,0,0,0-1.15-5.24,25.63,25.63,0,0,0-5-8.77,24.87,24.87,0,0,0-6.94-5.65,24.54,24.54,0,0,0-9.91-3,24.29,24.29,0,0,0-6.43.32,23.35,23.35,0,0,0-7.58,2.88,24.36,24.36,0,0,0-6.48,5.54c-.46.56-.9,1.13-1.34,1.7" transform="translate(0 0)"/><path class="cls-3" d="M45,10.53c.44-.57.88-1.14,1.34-1.7a24.36,24.36,0,0,1,6.48-5.54A23.35,23.35,0,0,1,60.43.41,24.29,24.29,0,0,1,66.86.09a24.54,24.54,0,0,1,9.91,3,24.87,24.87,0,0,1,6.94,5.65,25.63,25.63,0,0,1,5,8.77,24.64,24.64,0,0,1,1.15,5.24A22.48,22.48,0,0,1,90,27.07a20.55,20.55,0,0,1-1,4.77,40.13,40.13,0,0,1-3.41,7.38,77.08,77.08,0,0,1-7,10.17c-2.2,2.72-4.45,5.39-6.78,8s-4.56,5-6.94,7.34q-4.1,4.13-8.35,8.09c-2.65,2.48-5.39,4.86-8.1,7.27-1,.92-2.09,1.78-3.14,2.68-.15.13-.25.11-.39,0-2.59-2.25-5.2-4.47-7.74-6.76s-5.11-4.68-7.6-7.08c-2.34-2.26-4.66-4.55-6.9-6.91q-3.62-3.8-7.06-7.74a105.11,105.11,0,0,1-9.2-12.08,49.73,49.73,0,0,1-4.87-9.35,23.69,23.69,0,0,1-1.3-5,19.62,19.62,0,0,1,0-4.4A27.52,27.52,0,0,1,1,18.61a25.69,25.69,0,0,1,4.07-8.34,25.3,25.3,0,0,1,9.56-7.9A24.82,24.82,0,0,1,26.72.05a23.13,23.13,0,0,1,8.6,2.25A24.65,24.65,0,0,1,43,8c.72.81,1.38,1.67,2.08,2.52" transform="translate(0 0)"/></g></g></g></svg>