<svg xmlns="http://www.w3.org/2000/svg" xmlns:xlink="http://www.w3.org/1999/xlink" viewBox="0 0 155.1 155.1"><defs><style>.cls-1{fill:none;}.cls-2{clip-path:url(#clip-path);}.cls-3{fill:#00586f;}.cls-4{fill:#fff;}.cls-5{isolation:isolate;}</style><clipPath id="clip-path"><rect class="cls-1" width="155.1" height="155.1"/></clipPath></defs><title>Element 2</title><g id="Ebene_2" data-name="Ebene 2"><g id="Ebene_1-2" data-name="Ebene 1"><g class="cls-2"><path class="cls-3" d="M77.55,155.1A77.55,77.55,0,1,0,0,77.55,77.55,77.55,0,0,0,77.55,155.1"/></g><path class="cls-4" d="M86.66,114.84a3.28,3.28,0,0,0-3.76.12l-11.42-7.69A18.41,18.41,0,0,0,72.59,93a26.27,26.27,0,0,0-10.71-14,27,27,0,0,0-14.71-4.61c-6.8,0-12.64,2.89-16,7.93C25.13,91.49,29.07,104.77,40,112a27,27,0,0,0,14.71,4.6c6.18,0,11.54-2.4,15-6.61l11.44,7.71a3.28,3.28,0,0,0,1.41,3.38l8.29,5.52a3.29,3.29,0,0,0,4.57-.91l.51-.77a3.29,3.29,0,0,0-.92-4.57ZM52.8,113.18a22.92,22.92,0,0,1-6.16-1.46l1.64-2.46,4.94,3.29Zm3.85-1.32,2.93-4.39,4.65,3.09A15.88,15.88,0,0,1,58.31,113Zm-2.06-1.37-4.94-3.29,2.93-4.4,4.94,3.29ZM32,95.44a15.82,15.82,0,0,1-.05-6.39l4.6,3.07-2.93,4.4Zm6.61-2,4.94,3.29-2.93,4.4-4.94-3.28ZM49,77.91a22.64,22.64,0,0,1,6.18,1.44L53.5,81.79,48.56,78.5ZM45.13,79.2,42.2,83.6l-4.6-3.06a15.69,15.69,0,0,1,5.93-2.41Zm2.06,1.36,4.94,3.29-2.93,4.4L44.26,85Zm4.06,9.06,2.93-4.4,5,3.29-2.93,4.4ZM54.83,95l-2.93,4.4L47,96.08l2.93-4.4Zm-7-4.66L44.9,94.72,40,91.43,42.89,87Zm-2.25,7.83,4.94,3.29-2.93,4.4-4.94-3.28ZM54,100.75l2.93-4.4,4.94,3.28L58.89,104Zm4.3-6.47,2.93-4.4,4.94,3.29-2.93,4.4Zm9.93.26,1.58,1a15.76,15.76,0,0,1,.08,6.41l-4.59-3.06ZM68,90.43l-.45.68-5-3.29,1.64-2.45A22.47,22.47,0,0,1,68,90.43Zm-5.58-6.79L60.5,86.45l-5-3.28,1.89-2.84a27,27,0,0,1,2.61,1.49A25.82,25.82,0,0,1,62.37,83.64ZM35.63,82.19l5.2,3.47-2.93,4.4-5.21-3.47a14,14,0,0,1,1.23-2.36A12.84,12.84,0,0,1,35.63,82.19ZM33.85,100.6l.43-.65,4.94,3.28-1.65,2.5A22.85,22.85,0,0,1,33.85,100.6Zm5.54,6.84,1.89-2.84,4.94,3.29-1.89,2.83a22.25,22.25,0,0,1-2.55-1.45A24.32,24.32,0,0,1,39.39,107.44ZM66.2,108.9,61,105.4l2.93-4.4,5.23,3.49a11.64,11.64,0,0,1-2.91,4.41Z"/><path class="cls-4" d="M86.83,68.56A25.37,25.37,0,0,0,84.2,83.69c5.16-1.2,12.49.61,19.42,5.26s11.39,10.75,12.22,16a25.37,25.37,0,0,0,13-8.17,253.07,253.07,0,0,0-20.35-15.08A243.76,243.76,0,0,0,86.83,68.56Z"/><path class="cls-4" d="M134.65,76.93c-5.17,1.2-12.5-.61-19.43-5.26s-11.38-10.75-12.22-16a25.3,25.3,0,0,0-14.45,10A253.35,253.35,0,0,1,110.34,79a253.07,253.07,0,0,1,20.47,15.16A25.37,25.37,0,0,0,134.65,76.93Z"/><path class="cls-4" d="M101.79,91.69C95.68,87.58,89,85.86,84.85,86.9a25.35,25.35,0,0,0,27.78,18.65C112,101.3,107.89,95.78,101.79,91.69Z"/><path class="cls-4" d="M117.06,68.93c6.11,4.1,12.77,5.82,16.94,4.79a25.35,25.35,0,0,0-27.78-18.65C106.83,59.31,111,64.83,117.06,68.93Z"/><path class="cls-4" d="M40.62,63.67a21.88,21.88,0,0,0-7.55-19.29c-3.59,5-5.09,9.78-4,12.67S34.6,62.44,40.62,63.67Z"/><path class="cls-4" d="M87,45.52c3.59-5,5.1-9.79,4-12.67s-5.49-5.39-11.52-6.62A21.88,21.88,0,0,0,87,45.52Z"/><path class="cls-4" d="M42.34,51.87a24.51,24.51,0,0,1,1.52,12.31A47.64,47.64,0,0,0,85,48.08a25,25,0,0,1-8.77-22.37A47.71,47.71,0,0,0,35.1,41.81,24.74,24.74,0,0,1,42.34,51.87ZM45.29,36.4A.89.89,0,0,1,46.48,36a12,12,0,0,1,4.17,3.58,34.72,34.72,0,0,1,5.05-2.64A10,10,0,0,0,53,34.76a.9.9,0,0,1,.74-1.65,12,12,0,0,1,3.75,3.07,34.09,34.09,0,0,1,5.9-1.61,10.42,10.42,0,0,0-3.14-2.64.91.91,0,0,1-.45-1.2A.89.89,0,0,1,61,30.28a12.17,12.17,0,0,1,4.47,4,16.91,16.91,0,0,1,4,0,.9.9,0,1,1-.32,1.78A13.83,13.83,0,0,0,66.49,36,15.77,15.77,0,0,1,68,40.75a.92.92,0,0,1-.76,1h-.14a.91.91,0,0,1-.89-.77,13.37,13.37,0,0,0-1.66-4.8,30.63,30.63,0,0,0-5.94,1.5,15,15,0,0,1,2.14,5.87.92.92,0,0,1-.76,1h-.13a.89.89,0,0,1-.89-.77,13.25,13.25,0,0,0-2.08-5.49,32.26,32.26,0,0,0-5.21,2.69,15.38,15.38,0,0,1,1.83,5.37.91.91,0,0,1-.76,1h-.14a.9.9,0,0,1-.89-.77,13.49,13.49,0,0,0-1.54-4.61,16.6,16.6,0,0,0-2.82,2.55.88.88,0,0,1-.72.36.9.9,0,0,1-.54-.18.91.91,0,0,1-.18-1.27,18.46,18.46,0,0,1,3.27-3,10.35,10.35,0,0,0-3.41-2.95A.91.91,0,0,1,45.29,36.4Z"/><text class="cls-5"/></g></g></svg>