<svg xmlns="http://www.w3.org/2000/svg" xmlns:xlink="http://www.w3.org/1999/xlink" viewBox="0 0 80.86 99.66"><defs><style>.cls-1{fill:none;}.cls-2{clip-path:url(#clip-path);}.cls-3{fill:#fff;}</style><clipPath id="clip-path" transform="translate(0)"><rect class="cls-1" width="80.85" height="99.66"/></clipPath></defs><title>Element 21</title><g id="Ebene_2" data-name="Ebene 2"><g id="Ebene_1-2" data-name="Ebene 1"><g class="cls-2"><path class="cls-3" d="M4.75,99.66a13,13,0,0,1-2-1.26,4,4,0,0,1-1-3.14V57.07q0-21.51,0-43A14.35,14.35,0,0,0,.58,8.24,5.66,5.66,0,0,1,4.32.15,1.51,1.51,0,0,0,4.6,0H6.35A12.81,12.81,0,0,1,8.91,1.21a5.57,5.57,0,0,1,1.63,6.87,16.66,16.66,0,0,0-1.25,6.43q0,40.28,0,80.55c0,1.27-.06,2.53-1.11,3.43a15.1,15.1,0,0,1-1.84,1.17Z" transform="translate(0)"/><path class="cls-3" d="M13.83,34.74c0-6.1,0-12.21,0-18.31a7.39,7.39,0,0,1,2-5.39,11.74,11.74,0,0,1,3-2.09A29.85,29.85,0,0,1,29,5.81,24,24,0,0,1,43.6,9c3,1.71,6,3.51,9.13,5.17a16.45,16.45,0,0,0,9.94,2.14,22.41,22.41,0,0,0,6.69-2A61,61,0,0,0,78,9.28a3.29,3.29,0,0,1,1.22-.52A1.22,1.22,0,0,1,80.7,9.81a6,6,0,0,1,.14,1.33q0,18.27,0,36.54a9.63,9.63,0,0,1-4.3,8.16,32.46,32.46,0,0,1-9.3,5.06A16.74,16.74,0,0,1,57.07,61a54.67,54.67,0,0,1-9.86-4.55c-3-1.6-6-3.15-9-4.52a16.71,16.71,0,0,0-11.14-.62,41,41,0,0,0-10.15,4.26,4.21,4.21,0,0,1-1,.42A1.44,1.44,0,0,1,14,54.85a7,7,0,0,1-.16-1.65q0-9.24,0-18.46" transform="translate(0)"/></g></g></g></svg>