<svg xmlns="http://www.w3.org/2000/svg" xmlns:xlink="http://www.w3.org/1999/xlink" viewBox="0 0 98.31 69.71"><defs><style>.cls-1{fill:none;}.cls-2{clip-path:url(#clip-path);}.cls-3{fill:#fff;}</style><clipPath id="clip-path" transform="translate(0)"><rect class="cls-1" width="98.31" height="69.71"/></clipPath></defs><title>Element 24</title><g id="Ebene_2" data-name="Ebene 2"><g id="Ebene_1-2" data-name="Ebene 1"><g class="cls-2"><path class="cls-3" d="M49.21,57.06a12.7,12.7,0,1,1-.1-25.39,12.7,12.7,0,1,1,.1,25.39M80,42.23a43.23,43.23,0,0,0-3.73-3.93c-2.09-2-4.33-3.84-6.34-5.9a14.36,14.36,0,0,1-4.4-11c.07-1.48,0-3,0-4.46,0-.27-.21-.72-.39-.76C63,15.72,60.89,15.36,58.8,15c-1.75,4.57-5.09,7.07-9.23,7.21a10,10,0,0,1-9.85-6.66,1,1,0,0,0-.8-.45c-2,.28-4,.62-6.13.95,0,2,0,3.89,0,5.73a13.53,13.53,0,0,1-3.5,9.58c-1.56,1.78-3.35,3.37-5.06,5s-3.54,3.21-5.17,4.93a9.62,9.62,0,0,0-2.69,7.06c.08,4.85,0,9.71,0,14.56,0,4.09,2.76,6.79,7,6.79H75c4.14,0,6.93-2.71,6.94-6.71,0-5,0-10,0-15A8.76,8.76,0,0,0,80,42.23" transform="translate(0)"/><path class="cls-3" d="M86.79,4.75A127.92,127.92,0,0,0,57.08.2,162,162,0,0,0,33.36.77a117.1,117.1,0,0,0-21.75,4,15.42,15.42,0,0,0-11,11C-.65,20,.2,24.07,1.56,28.08a5.6,5.6,0,0,0,6.5,3.45Q14.68,30.28,21.28,29c3.34-.66,5.2-2.84,5.11-6.15a22.91,22.91,0,0,0-.7-4,3.46,3.46,0,0,1,2.24-4.42,23.39,23.39,0,0,1,3.26-1.16c5.83-1.58,11.82-1.86,19.14-2,2.27.16,5.85.31,9.41.68a35.32,35.32,0,0,1,10.58,2.47c2.13.93,2.75,2.25,2.29,4.48A22,22,0,0,0,72,23.34a5.56,5.56,0,0,0,4.4,5.51q6.91,1.38,13.83,2.67a5.77,5.77,0,0,0,6.87-4.19,48,48,0,0,0,1.12-5.43A15.81,15.81,0,0,0,86.79,4.75" transform="translate(0)"/></g></g></g></svg>