<svg xmlns="http://www.w3.org/2000/svg" viewBox="0 0 400 603.5"><defs><style>.cls-1{fill:#00586f;}</style></defs><title>Element 6</title><g id="Ebene_2" data-name="Ebene 2"><g id="Ebene_1-2" data-name="Ebene 1"><rect class="cls-1" x="196.69" y="1.85" width="7.5" height="600"/><path class="cls-1" d="M97,1.35c0,.16,0,.33,0,.5,0,22.36,46.11,40.5,103,40.5s103-18.14,103-40.5c0-.17,0-.34,0-.5Z"/><path class="cls-1" d="M303.92,602.35c0-.17,0-.34,0-.5,0-22.37-46.12-40.5-103-40.5s-103,18.13-103,40.5c0,.16,0,.33,0,.5Z"/><rect class="cls-1" x="198.75" y="-198.75" width="2.5" height="400" transform="translate(201.25 -198.75) rotate(90)"/><rect class="cls-1" x="198.75" y="402.25" width="2.5" height="400" transform="translate(802.25 402.25) rotate(90)"/></g></g></svg>